<?xml version="1.0" encoding="UTF-8" standalone="no"?>
<svg
   xmlns:dc="http://purl.org/dc/elements/1.1/"
   xmlns:cc="http://creativecommons.org/ns#"
   xmlns:rdf="http://www.w3.org/1999/02/22-rdf-syntax-ns#"
   xmlns:svg="http://www.w3.org/2000/svg"
   xmlns="http://www.w3.org/2000/svg"
   xmlns:sodipodi="http://sodipodi.sourceforge.net/DTD/sodipodi-0.dtd"
   xmlns:inkscape="http://www.inkscape.org/namespaces/inkscape"
   viewBox="0 0 800 328"
   id="svg4136"
   version="1.1"
   inkscape:version="0.91 r13725"
   sodipodi:docname="historical-branches.svg">
  <metadata
     id="metadata4202">
    <rdf:RDF>
      <cc:Work
         rdf:about="">
        <dc:format>image/svg+xml</dc:format>
        <dc:type
           rdf:resource="http://purl.org/dc/dcmitype/StillImage" />
        <dc:title />
      </cc:Work>
    </rdf:RDF>
  </metadata>
  <defs
     id="defs4200" />
  <sodipodi:namedview
     pagecolor="#ffffff"
     bordercolor="#666666"
     borderopacity="1"
     objecttolerance="10"
     gridtolerance="10"
     guidetolerance="10"
     inkscape:pageopacity="0"
     inkscape:pageshadow="2"
     inkscape:window-width="1366"
     inkscape:window-height="705"
     id="namedview4198"
     showgrid="false"
     inkscape:snap-text-baseline="true"
     showguides="true"
     inkscape:guide-bbox="true"
     inkscape:zoom="1.145"
     inkscape:cx="340.78569"
     inkscape:cy="172.94981"
     inkscape:window-x="-8"
     inkscape:window-y="125"
     inkscape:window-maximized="1"
     inkscape:current-layer="svg4136" />
  <style
     id="style4138">.st0{display:none;} .st1{display:inline;} .st2{fill:#FFFFFF;} .st3{fill:none;stroke:#9882CE;stroke-width:4;stroke-miterlimit:10;} .st4{fill:#FFFFFF;stroke:#404040;stroke-width:4;stroke-linecap:round;stroke-linejoin:round;stroke-miterlimit:10;} .st5{fill:#FFFFFF;stroke:#404040;stroke-width:4;stroke-miterlimit:10;} .st6{fill:#B3E3FF;stroke:#404040;stroke-width:4;stroke-miterlimit:10;} .st7{fill:#B18BE8;stroke:#404040;stroke-width:4;stroke-miterlimit:10;} .st8{fill:#FFFFFF;stroke:#404040;stroke-width:6;stroke-miterlimit:10;} .st9{fill:#B3E3FF;stroke:#404040;stroke-width:6;stroke-miterlimit:10;} .st10{fill:#404040;} .st11{fill:none;stroke:#404040;stroke-width:4;stroke-linecap:round;stroke-linejoin:round;stroke-miterlimit:10;} .st12{fill:#B18BE8;stroke:#404040;stroke-width:4;stroke-linecap:round;stroke-linejoin:round;stroke-miterlimit:10;} .st13{fill:#444444;} .st14{fill:none;stroke:#404040;stroke-width:4;stroke-miterlimit:10;} .st15{fill:#4ED1A1;stroke:#404040;stroke-width:4;stroke-miterlimit:10;} .st16{fill:none;stroke:#CCCCCC;stroke-width:7;stroke-linecap:round;stroke-linejoin:round;stroke-miterlimit:10;} .st17{fill:#FFFFFF;stroke:#CCCCCC;stroke-width:7;stroke-linecap:round;stroke-linejoin:round;stroke-miterlimit:10;} .st18{fill:none;stroke:#404040;stroke-width:7;stroke-miterlimit:10;} .st19{fill:#B3E3FF;stroke:#404040;stroke-width:7;stroke-miterlimit:10;} .st20{fill:none;stroke:#CCCCCC;stroke-width:8;stroke-linecap:round;stroke-miterlimit:10;} .st21{fill:none;stroke:#404040;stroke-width:8;stroke-linecap:round;stroke-miterlimit:10;} .st22{fill:#FFFFFF;stroke:#404040;stroke-width:4;stroke-linejoin:round;stroke-miterlimit:10;} .st23{fill:#B3E3FF;stroke:#404040;stroke-width:4;stroke-linejoin:round;stroke-miterlimit:10;} .st24{fill:none;stroke:#CCCCCC;stroke-linecap:round;stroke-linejoin:round;stroke-miterlimit:10;} .st25{fill:#999999;} .st26{fill:#4ED1A1;stroke:#404040;stroke-width:4;stroke-linecap:round;stroke-linejoin:round;stroke-miterlimit:10;} .st27{fill:#4CD3D6;stroke:#404040;stroke-width:4;stroke-linejoin:round;stroke-miterlimit:10;} .st28{fill:none;stroke:#59AFE1;stroke-width:4;stroke-miterlimit:10;} .st29{fill:#59AFE1;stroke:#404040;stroke-width:4;stroke-linejoin:round;stroke-miterlimit:10;} .st30{fill:none;stroke:#404040;stroke-width:8;stroke-linecap:round;stroke-linejoin:round;stroke-miterlimit:10;stroke-dasharray:0,30;} .st31{fill:#FFFFFF;stroke:#59AFE1;stroke-width:4;stroke-miterlimit:10;} .st32{fill:#FC8363;stroke:#404040;stroke-width:4;stroke-linecap:round;stroke-linejoin:round;stroke-miterlimit:10;} .st33{fill:#CCCCCC;stroke:#404040;stroke-width:4;stroke-miterlimit:10;} .st34{fill:#FFFFFF;stroke:#6693ED;stroke-width:4;stroke-miterlimit:10;} .st35{fill:none;stroke:#A97CDD;stroke-width:4;stroke-linecap:round;stroke-linejoin:round;stroke-miterlimit:10;} .st36{fill:none;stroke:#B3E3FF;stroke-width:4;stroke-linecap:round;stroke-linejoin:round;stroke-miterlimit:10;} .st37{fill:none;stroke:#4ED1A1;stroke-width:4;stroke-linecap:round;stroke-miterlimit:10;} .st38{fill:none;stroke:#4ED1A1;stroke-width:4;stroke-linecap:round;stroke-linejoin:round;stroke-miterlimit:10;} .st39{fill:#E24B88;stroke:#404040;stroke-width:4;stroke-linecap:round;stroke-linejoin:round;stroke-miterlimit:10;} .st40{fill:none;stroke:#DEEFF8;stroke-width:4;stroke-miterlimit:10;} .st41{fill:none;stroke:#CCCCCC;stroke-width:4;stroke-linecap:round;stroke-linejoin:round;} .st42{fill:none;stroke:#CCCCCC;stroke-width:4;stroke-linecap:round;stroke-linejoin:round;stroke-dasharray:0,14.3051;} .st43{fill:none;stroke:#CCCCCC;stroke-width:4;stroke-linecap:round;stroke-linejoin:round;stroke-dasharray:0,14.1689;} .st44{fill:none;stroke:#CCCCCC;stroke-width:4;stroke-linecap:round;stroke-linejoin:round;stroke-dasharray:0,13.9788;} .st45{fill:none;stroke:#CCCCCC;stroke-width:4;stroke-linecap:round;stroke-linejoin:round;stroke-dasharray:0,14.7877;} .st46{fill:none;stroke:#CCCCCC;stroke-width:4;stroke-linecap:round;stroke-linejoin:round;stroke-dasharray:0,14.9632;} .st47{fill:#B3E3FF;stroke:#404040;stroke-width:4;stroke-linecap:round;stroke-linejoin:round;stroke-miterlimit:10;} .st48{fill:none;stroke:#CCCCCC;stroke-width:4;stroke-linecap:round;stroke-linejoin:round;stroke-dasharray:0,12.543;} .st49{fill:none;stroke:#CCCCCC;stroke-width:4;stroke-linecap:round;stroke-linejoin:round;stroke-dasharray:0,13.6844;} .st50{fill:none;stroke:#CCCCCC;stroke-width:4;stroke-linecap:round;stroke-linejoin:round;stroke-dasharray:0,13.7717;} .st51{fill:none;stroke:#CCCCCC;stroke-width:4;stroke-linecap:round;stroke-linejoin:round;stroke-dasharray:0,13.6492;} .st52{fill:none;stroke:#CCCCCC;stroke-width:4;stroke-linecap:round;stroke-linejoin:round;stroke-dasharray:0,13.907;} .st53{fill:#4CD3D6;stroke:#404040;stroke-width:4;stroke-linecap:round;stroke-linejoin:round;stroke-miterlimit:10;} .st54{fill:none;stroke:#CCCCCC;stroke-width:4;stroke-linecap:round;stroke-linejoin:round;stroke-dasharray:0,14.9858;} .st55{fill:none;stroke:#CCCCCC;stroke-width:4;stroke-linecap:round;stroke-linejoin:round;stroke-dasharray:0,14.0118;} .st56{fill:none;stroke:#CCCCCC;stroke-width:4;stroke-linecap:round;stroke-linejoin:round;stroke-dasharray:0,14.1243;} .st57{fill:none;} .st58{fill:#FFFFFF;stroke:#404040;stroke-width:7;stroke-linecap:round;stroke-linejoin:round;stroke-miterlimit:10;} .st59{fill:#59AFE1;stroke:#404040;stroke-width:7;stroke-linejoin:round;stroke-miterlimit:10;} .st60{fill:#E24B88;stroke:#404040;stroke-width:7;stroke-linecap:round;stroke-linejoin:round;stroke-miterlimit:10;} .st61{fill:none;stroke:#404040;stroke-width:7;stroke-linecap:round;stroke-linejoin:round;stroke-miterlimit:10;} .st62{fill:none;stroke:#CCCCCC;stroke-width:4;stroke-linecap:round;stroke-linejoin:round;stroke-miterlimit:10;} .st63{fill:#FFFFFF;stroke:#CCCCCC;stroke-width:4;stroke-linecap:round;stroke-linejoin:round;stroke-miterlimit:10;} .st64{fill:#F5F5F5;} .st65{fill:#3873AE;} .st66{fill:#75706C;} .st67{fill:none;stroke:#B3E3FF;stroke-width:4;stroke-miterlimit:10;} .st68{fill:#6F6F6F;} .st69{fill:none;stroke:#6F6F6F;stroke-width:2;stroke-miterlimit:10;} .st70{fill:none;stroke:#6F6F6F;stroke-width:3;stroke-miterlimit:10;}</style>
  <path
     class="st10"
     d="m 171.16681,40.346934 0,-10.6 3.7,0 c 2.7,0 5.1,1.8 5.1,5.3 0,3.5 -2.4,5.3 -5.1,5.3 l -3.7,0 z m 3.6,-1.3 c 2,0 3.6,-1.3 3.6,-4 0,-2.7 -1.6,-4 -3.6,-4 l -2.2,0 0,8 2.2,0 z m 14,-0.8 c -0.4,1.3 -1.6,2.3 -3.2,2.3 -1.9,0 -3.6,-1.4 -3.6,-3.9 0,-2.3 1.6,-3.8 3.4,-3.8 2.2,0 3.5,1.5 3.5,3.8 l 0,0.5 -5.5,0 c 0,1.3 1,2.2 2.2,2.2 1.2,0 1.8,-0.6 2,-1.5 l 1.2,0.4 z m -1.4,-2.3 c 0,-1 -0.7,-1.8 -2,-1.8 -1.2,0 -1.9,0.9 -2,1.8 l 4,0 z m 7.5,4.4 -1.4,0 -2.9,-7.2 1.6,0 2.1,5.6 2.1,-5.6 1.5,0 -3,7.2 z m 10.7,-2.1 c -0.4,1.3 -1.6,2.3 -3.2,2.3 -1.9,0 -3.6,-1.4 -3.6,-3.9 0,-2.3 1.6,-3.8 3.4,-3.8 2.2,0 3.5,1.5 3.5,3.8 l 0,0.5 -5.4,0 c 0,1.3 1,2.2 2.2,2.2 1.2,0 1.8,-0.6 2,-1.5 l 1.1,0.4 z m -1.4,-2.3 c 0,-1 -0.7,-1.8 -2,-1.8 -1.2,0 -1.9,0.9 -2,1.8 l 4,0 z m 4,4.4 0,-10.9 1.4,0 0,10.9 -1.4,0 z m 11.4,-3.6 c 0,2.2 -1.5,3.8 -3.7,3.8 -2.2,0 -3.7,-1.6 -3.7,-3.8 0,-2.2 1.5,-3.8 3.7,-3.8 2.1,-0.1 3.7,1.6 3.7,3.8 z m -1.5,0 c 0,-1.7 -1,-2.6 -2.2,-2.6 -1.2,0 -2.2,0.9 -2.2,2.6 0,1.7 1,2.6 2.2,2.6 1.2,0 2.2,-0.9 2.2,-2.6 z m 4,6.4 0,-10 1.4,0 0,1.1 c 0.4,-0.7 1.2,-1.3 2.4,-1.3 2.2,0 3.3,1.7 3.3,3.8 0,2.1 -1.2,3.8 -3.4,3.8 -1.1,0 -2,-0.5 -2.3,-1.2 l 0,3.8 -1.4,0 z m 3.5,-8.9 c -1.3,0 -2.1,1.1 -2.1,2.5 0,1.5 0.9,2.5 2.1,2.5 1.3,0 2.1,-1.1 2.1,-2.5 0.1,-1.5 -0.7,-2.5 -2.1,-2.5 z"
     id="path4144"
     inkscape:connector-curvature="0"
     style="fill:#235789;fill-opacity:1" />
  <path
     class="st10"
     d="m 59.167251,41.496934 0,-8.3 -3.7,8.3 -1.3,0 -3.6,-8.3 0,8.3 -1.5,0 0,-10.6 2,0 3.8,8.7 3.8,-8.7 2,0 0,10.6 -1.5,0 z m 6.4,-4.1 1.9,-0.3 c 0.4,-0.1 0.6,-0.3 0.6,-0.5 0,-0.7 -0.5,-1.3 -1.6,-1.3 -1,0 -1.5,0.6 -1.6,1.5 l -1.4,-0.4 c 0.2,-1.4 1.4,-2.3 3,-2.3 2.2,0 3,1.2 3,2.6 l 0,3.6 c 0,0.6 0.1,1 0.1,1.2 l -1.4,0 c 0,-0.2 -0.1,-0.5 -0.1,-1 -0.3,0.5 -1,1.2 -2.3,1.2 -1.5,0 -2.4,-1 -2.4,-2.2 0,-1.2 0.9,-2 2.2,-2.1 z m 2.5,1 0,-0.3 -2.2,0.3 c -0.6,0.1 -1,0.4 -1,1.1 0,0.5 0.4,1 1.2,1 1.1,0 2,-0.5 2,-2.1 z m 4.9,0.8 c 0.1,0.8 0.7,1.3 1.7,1.3 0.8,0 1.2,-0.4 1.2,-1 0,-0.4 -0.3,-0.8 -0.9,-0.9 l -1.2,-0.3 c -1.1,-0.2 -1.8,-1 -1.8,-2 0,-1.2 1.2,-2.3 2.6,-2.3 2,0 2.6,1.3 2.7,1.9 l -1.2,0.5 c -0.1,-0.4 -0.4,-1.2 -1.5,-1.2 -0.7,0 -1.2,0.5 -1.2,1 0,0.4 0.3,0.8 0.8,0.9 l 1.2,0.3 c 1.3,0.3 2,1.1 2,2.1 0,1 -0.9,2.2 -2.6,2.2 -2,0 -2.8,-1.3 -2.9,-2.1 l 1.1,-0.4 z m 8.9,-4.9 1.6,0 0,1.3 -1.6,0 0,3.8 c 0,0.7 0.3,1 1,1 0.2,0 0.4,0 0.6,-0.1 l 0,1.2 c -0.1,0 -0.5,0.1 -1,0.1 -1.2,0 -2,-0.8 -2,-2.1 l 0,-4 -1.4,0 0,-1.3 0.4,0 c 0.8,0 1.1,-0.5 1.1,-1.1 l 0,-1.2 1.3,0 0,2.4 z m 10.3,5.1 c -0.4,1.3 -1.6,2.3 -3.2,2.3 -1.9,0 -3.6,-1.4 -3.6,-3.9 0,-2.3 1.6,-3.8 3.5,-3.8 2.2,0 3.5,1.5 3.5,3.8 l 0,0.5 -5.4,0 c 0,1.3 1,2.2 2.2,2.2 1.2,0 1.8,-0.6 2,-1.5 l 1,0.4 z m -1.4,-2.3 c 0,-1 -0.7,-1.8 -2,-1.8 -1.2,0 -1.9,0.9 -2,1.8 l 4,0 z m 8,-1.4 -0.6,0 c -1.2,0 -2,0.6 -2,2.2 l 0,3.6 -1.4,0 0,-7.2 1.4,0 0,1.3 c 0.5,-1.1 1.4,-1.4 2.2,-1.4 l 0.5,0 0,1.5 z"
     id="path4148"
     style="fill:#235789;fill-opacity:1"
     inkscape:connector-curvature="0" />
  <path
     class="st14"
     d="M776.4 306.7h-596.4"
     id="path4150"
     style="stroke:#235789;stroke-opacity:1" />
  <circle
     class="st7"
     cx="485.4"
     cy="306.7"
     r="15.8"
     id="circle4152"
     style="fill:#f1d302;fill-opacity:1;stroke:#235789;stroke-opacity:1" />
  <circle
     class="st7"
     cx="316"
     cy="306.7"
     r="15.8"
     id="circle4154"
     style="fill:#f1d302;fill-opacity:1;stroke:#235789;stroke-opacity:1" />
  <circle
     class="st7"
     cx="776.4"
     cy="306.7"
     r="15.8"
     id="circle4156"
     style="fill:#f1d302;fill-opacity:1;stroke:#235789;stroke-opacity:1" />
  <path
     class="st56"
     d="M70.9 306.7h-49.4"
     id="path4158"
     style="stroke:#235789;stroke-opacity:1" />
  <path
     class="st41"
     d="M14.5 306.7m761.9-61.5"
     id="path4160" />
  <path
     class="st46"
     d="M761.4 245.2h-82.3"
     id="path4162"
     style="stroke:#235789;stroke-opacity:1" />
  <path
     class="st14"
     d="M85.1 275.9c0-17-13.8-30.7-30.8-30.7m30.8 30.7"
     id="path4164"
     style="stroke:#235789;stroke-opacity:1" />
  <path
     class="st14"
     d="M645.2 245.2h-605.8"
     id="path4166"
     style="stroke:#235789;stroke-opacity:1;fill:#ec4e20;fill-opacity:1" />
  <circle
     class="st6"
     cx="23.6"
     cy="245.2"
     r="15.8"
     id="circle4168"
     style="fill:#79b473;fill-opacity:1;stroke:#235789;stroke-opacity:1" />
  <circle
     class="st6"
     cx="316"
     cy="245.2"
     r="15.8"
     id="circle4170"
     style="fill:#79b473;fill-opacity:1;stroke:#235789;stroke-opacity:1" />
  <circle
     class="st6"
     cx="645.2"
     cy="245.2"
     r="15.8"
     id="circle4172"
     style="fill:#79b473;fill-opacity:1;stroke:#235789;stroke-opacity:1" />
  <path
     class="st47"
     d="m 5.5318777,143.19345 42.5000003,0 0,37.5 -42.5000003,0 z"
     id="path4174"
     style="fill:#bfc3ba;fill-opacity:1;stroke:#404040;stroke-width:4;stroke-linecap:round;stroke-linejoin:round;stroke-miterlimit:10;stroke-opacity:0"
     inkscape:connector-curvature="0" />
  <path
     class="st10"
     d="m 19.031878,166.39345 -1.2,0 -2.5,-6.3 1.4,0 1.8,4.8 1.8,-4.8 1.3,0 -2.6,6.3 z m 4.7,-7.2 c 0.5,-0.8 1.4,-1.4 2.6,-1.4 1.2,0 2,0.5 2.6,1.4 0.6,0.8 0.8,1.9 0.8,3.1 0,1.2 -0.2,2.2 -0.8,3.1 -0.5,0.8 -1.4,1.4 -2.6,1.4 -1.2,0 -2,-0.5 -2.6,-1.4 -0.6,-0.8 -0.8,-1.9 -0.8,-3.1 0,-1.2 0.3,-2.3 0.8,-3.1 z m 1.3,5.8 c 0.3,0.3 0.7,0.5 1.3,0.5 0.6,0 1,-0.2 1.3,-0.5 0.5,-0.5 0.7,-1.4 0.7,-2.7 0,-1.3 -0.2,-2.2 -0.7,-2.7 -0.3,-0.3 -0.7,-0.5 -1.3,-0.5 -0.6,0 -1,0.2 -1.3,0.5 -0.5,0.5 -0.7,1.4 -0.7,2.7 0,1.3 0.2,2.1 0.7,2.7 z m 7.2,-0.3 c 0.5,0 0.9,0.4 0.9,0.9 0,0.5 -0.4,0.9 -0.9,0.9 -0.5,0 -0.9,-0.4 -0.9,-0.9 0,-0.5 0.4,-0.9 0.9,-0.9 z m 4,1.7 0,-5.9 -2,0 0,-0.9 c 1.2,0 2,-0.7 2.2,-1.6 l 1.1,0 0,8.4 -1.3,0 z"
     id="path4176"
     style="fill:#ffffff;fill-opacity:1"
     inkscape:connector-curvature="0" />
  <path
     class="st11"
     d="m 26.831878,211.3 0,-17.6 m 8.1,11.1 -8.1,8.2 -8.2,-8.2"
     id="path4178"
     style="fill:none;stroke:#bfc3ba;stroke-width:4;stroke-linecap:round;stroke-linejoin:round;stroke-miterlimit:10;stroke-opacity:1"
     inkscape:connector-curvature="0" />
  <path
     class="st47"
     d="m 294.7,143.19345 42.5,0 0,37.5 -42.5,0 z"
     id="path4180"
     style="fill:#bfc3ba;fill-opacity:1;stroke:#404040;stroke-width:4;stroke-linecap:round;stroke-linejoin:round;stroke-miterlimit:10;stroke-opacity:0"
     inkscape:connector-curvature="0" />
  <path
     class="st10"
     d="m 306.6,166.39345 -1.2,0 -2.5,-6.3 1.4,0 1.8,4.8 1.8,-4.8 1.3,0 -2.6,6.3 z m 4.7,-7.2 c 0.5,-0.8 1.4,-1.4 2.6,-1.4 1.2,0 2,0.5 2.6,1.4 0.6,0.8 0.8,1.9 0.8,3.1 0,1.2 -0.2,2.2 -0.8,3.1 -0.5,0.8 -1.4,1.4 -2.6,1.4 -1.2,0 -2,-0.5 -2.6,-1.4 -0.6,-0.8 -0.8,-1.9 -0.8,-3.1 0,-1.2 0.3,-2.3 0.8,-3.1 z m 1.3,5.8 c 0.3,0.3 0.7,0.5 1.3,0.5 0.6,0 1,-0.2 1.3,-0.5 0.5,-0.5 0.7,-1.4 0.7,-2.7 0,-1.3 -0.2,-2.2 -0.7,-2.7 -0.3,-0.3 -0.7,-0.5 -1.3,-0.5 -0.6,0 -1,0.2 -1.3,0.5 -0.5,0.5 -0.7,1.4 -0.7,2.7 0,1.3 0.2,2.1 0.7,2.7 z m 7.2,-0.3 c 0.5,0 0.9,0.4 0.9,0.9 0,0.5 -0.4,0.9 -0.9,0.9 -0.5,0 -0.9,-0.4 -0.9,-0.9 0,-0.5 0.4,-0.9 0.9,-0.9 z m 3.1,-3.8 0,-0.3 c 0,-1.4 1.1,-2.7 2.9,-2.7 1.8,0 2.8,1.2 2.8,2.6 0,1.1 -0.6,2 -1.6,2.6 l -1.7,1.1 c -0.5,0.3 -0.9,0.7 -1,1.2 l 4.3,0 0,1.2 -5.9,0 c 0,-1.4 0.6,-2.4 2,-3.4 l 1.4,-0.9 c 0.8,-0.5 1.2,-1.1 1.2,-1.8 0,-0.8 -0.5,-1.5 -1.6,-1.5 -1.1,0 -1.6,0.8 -1.6,1.7 l 0,0.4 -1.2,-0.2 z"
     id="path4182"
     style="fill:#ffffff;fill-opacity:1"
     inkscape:connector-curvature="0" />
  <path
     class="st11"
     d="M316 211.3v-17.6m8.1 11.1l-8.1 8.2-8.2-8.2"
     id="path4184"
     style="stroke:#bfc3ba;stroke-opacity:1" />
  <path
     class="st47"
     d="m 623.9,143.19345 42.5,0 0,37.5 -42.5,0 z"
     id="path4186"
     style="fill:#bfc3ba;fill-opacity:1;stroke:#404040;stroke-width:4;stroke-linecap:round;stroke-linejoin:round;stroke-miterlimit:10;stroke-opacity:0"
     inkscape:connector-curvature="0" />
  <path
     class="st10"
     d="m 636.9,166.39345 -1.2,0 -2.5,-6.3 1.4,0 1.8,4.8 1.8,-4.8 1.3,0 -2.6,6.3 z m 5.7,0 0,-5.9 -2,0 0,-0.9 c 1.2,0 2,-0.7 2.2,-1.6 l 1.1,0 0,8.4 -1.3,0 z m 4.5,-1.7 c 0.5,0 0.9,0.4 0.9,0.9 0,0.5 -0.4,0.9 -0.9,0.9 -0.5,0 -0.9,-0.4 -0.9,-0.9 0,-0.5 0.4,-0.9 0.9,-0.9 z m 3.7,-5.5 c 0.5,-0.8 1.4,-1.4 2.6,-1.4 1.2,0 2,0.5 2.6,1.4 0.6,0.8 0.8,1.9 0.8,3.1 0,1.2 -0.2,2.2 -0.8,3.1 -0.5,0.8 -1.4,1.4 -2.6,1.4 -1.2,0 -2,-0.5 -2.6,-1.4 -0.6,-0.8 -0.8,-1.9 -0.8,-3.1 0,-1.2 0.2,-2.3 0.8,-3.1 z m 1.2,5.8 c 0.3,0.3 0.7,0.5 1.3,0.5 0.6,0 1,-0.2 1.3,-0.5 0.5,-0.5 0.7,-1.4 0.7,-2.7 0,-1.3 -0.2,-2.2 -0.7,-2.7 -0.3,-0.3 -0.7,-0.5 -1.3,-0.5 -0.6,0 -1,0.2 -1.3,0.5 -0.5,0.5 -0.7,1.4 -0.7,2.7 0,1.3 0.2,2.1 0.7,2.7 z"
     id="path4188"
     style="fill:#ffffff;fill-opacity:1"
     inkscape:connector-curvature="0" />
  <path
     class="st11"
     d="M645.2 211.3v-17.6m8.1 11.1l-8.1 8.2-8.2-8.2"
     id="path4190"
     style="stroke:#bfc3ba;stroke-opacity:1" />
  <path
     class="st14"
     d="M85.1 275.9c0 17 13.8 30.8 30.8 30.8h95.7"
     id="path4192"
     style="stroke:#235789;stroke-opacity:1" />
  <circle
     class="st7"
     cx="195.7"
     cy="306.7"
     r="15.7"
     id="circle4194"
     style="fill:#f1d302;fill-opacity:1;stroke:#235789;stroke-opacity:1" />
  <circle
     class="st7"
     cx="148.9"
     cy="306.7"
     r="15.8"
     id="circle4196"
     style="fill:#f1d302;fill-opacity:1;stroke:#235789;stroke-opacity:1" />
  <circle
     class="st6"
     cx="24.454147"
     cy="35.423584"
     r="15.8"
     id="circle4168-0"
     style="fill:#79b473;fill-opacity:1;stroke:#235789;stroke-width:4;stroke-miterlimit:10;stroke-opacity:1" />
  <circle
     class="st7"
     cx="143.61723"
     cy="36.296932"
     r="15.8"
     id="circle4196-6"
     style="fill:#f1d302;fill-opacity:1;stroke:#235789;stroke-width:4;stroke-miterlimit:10;stroke-opacity:1" />
</svg>
