<?xml version="1.0" encoding="UTF-8" standalone="no"?>
<svg
   xmlns:dc="http://purl.org/dc/elements/1.1/"
   xmlns:cc="http://creativecommons.org/ns#"
   xmlns:rdf="http://www.w3.org/1999/02/22-rdf-syntax-ns#"
   xmlns:svg="http://www.w3.org/2000/svg"
   xmlns="http://www.w3.org/2000/svg"
   xmlns:sodipodi="http://sodipodi.sourceforge.net/DTD/sodipodi-0.dtd"
   xmlns:inkscape="http://www.inkscape.org/namespaces/inkscape"
   viewBox="0 0 800 574"
   id="svg2"
   version="1.1"
   inkscape:version="0.91 r13725"
   sodipodi:docname="maintenance-branches.svg">
  <metadata
     id="metadata142">
    <rdf:RDF>
      <cc:Work
         rdf:about="">
        <dc:format>image/svg+xml</dc:format>
        <dc:type
           rdf:resource="http://purl.org/dc/dcmitype/StillImage" />
        <dc:title></dc:title>
      </cc:Work>
    </rdf:RDF>
  </metadata>
  <defs
     id="defs140" />
  <sodipodi:namedview
     pagecolor="#ffffff"
     bordercolor="#666666"
     borderopacity="1"
     objecttolerance="10"
     gridtolerance="10"
     guidetolerance="10"
     inkscape:pageopacity="0"
     inkscape:pageshadow="2"
     inkscape:window-width="1366"
     inkscape:window-height="705"
     id="namedview138"
     showgrid="false"
     showguides="true"
     inkscape:guide-bbox="true"
     inkscape:zoom="0.93379791"
     inkscape:cx="400"
     inkscape:cy="287"
     inkscape:window-x="-8"
     inkscape:window-y="125"
     inkscape:window-maximized="1"
     inkscape:current-layer="svg2" />
  <style
     id="style4">.st0{display:none;} .st1{display:inline;} .st2{fill:#FFFFFF;} .st3{fill:none;stroke:#9882CE;stroke-width:4;stroke-miterlimit:10;} .st4{fill:#FFFFFF;stroke:#404040;stroke-width:4;stroke-linecap:round;stroke-linejoin:round;stroke-miterlimit:10;} .st5{fill:#FFFFFF;stroke:#404040;stroke-width:4;stroke-miterlimit:10;} .st6{fill:#B3E3FF;stroke:#404040;stroke-width:4;stroke-miterlimit:10;} .st7{fill:#B18BE8;stroke:#404040;stroke-width:4;stroke-miterlimit:10;} .st8{fill:#FFFFFF;stroke:#404040;stroke-width:6;stroke-miterlimit:10;} .st9{fill:#B3E3FF;stroke:#404040;stroke-width:6;stroke-miterlimit:10;} .st10{fill:#404040;} .st11{fill:none;stroke:#404040;stroke-width:4;stroke-linecap:round;stroke-linejoin:round;stroke-miterlimit:10;} .st12{fill:#B18BE8;stroke:#404040;stroke-width:4;stroke-linecap:round;stroke-linejoin:round;stroke-miterlimit:10;} .st13{fill:#444444;} .st14{fill:none;stroke:#404040;stroke-width:4;stroke-miterlimit:10;} .st15{fill:#4ED1A1;stroke:#404040;stroke-width:4;stroke-miterlimit:10;} .st16{fill:none;stroke:#CCCCCC;stroke-width:7;stroke-linecap:round;stroke-linejoin:round;stroke-miterlimit:10;} .st17{fill:#FFFFFF;stroke:#CCCCCC;stroke-width:7;stroke-linecap:round;stroke-linejoin:round;stroke-miterlimit:10;} .st18{fill:none;stroke:#404040;stroke-width:7;stroke-miterlimit:10;} .st19{fill:#B3E3FF;stroke:#404040;stroke-width:7;stroke-miterlimit:10;} .st20{fill:none;stroke:#CCCCCC;stroke-width:8;stroke-linecap:round;stroke-miterlimit:10;} .st21{fill:none;stroke:#404040;stroke-width:8;stroke-linecap:round;stroke-miterlimit:10;} .st22{fill:#FFFFFF;stroke:#404040;stroke-width:4;stroke-linejoin:round;stroke-miterlimit:10;} .st23{fill:#B3E3FF;stroke:#404040;stroke-width:4;stroke-linejoin:round;stroke-miterlimit:10;} .st24{fill:none;stroke:#CCCCCC;stroke-linecap:round;stroke-linejoin:round;stroke-miterlimit:10;} .st25{fill:#999999;} .st26{fill:#4ED1A1;stroke:#404040;stroke-width:4;stroke-linecap:round;stroke-linejoin:round;stroke-miterlimit:10;} .st27{fill:#4CD3D6;stroke:#404040;stroke-width:4;stroke-linejoin:round;stroke-miterlimit:10;} .st28{fill:none;stroke:#59AFE1;stroke-width:4;stroke-miterlimit:10;} .st29{fill:#59AFE1;stroke:#404040;stroke-width:4;stroke-linejoin:round;stroke-miterlimit:10;} .st30{fill:none;stroke:#404040;stroke-width:8;stroke-linecap:round;stroke-linejoin:round;stroke-miterlimit:10;stroke-dasharray:0,30;} .st31{fill:#FFFFFF;stroke:#59AFE1;stroke-width:4;stroke-miterlimit:10;} .st32{fill:#FC8363;stroke:#404040;stroke-width:4;stroke-linecap:round;stroke-linejoin:round;stroke-miterlimit:10;} .st33{fill:#CCCCCC;stroke:#404040;stroke-width:4;stroke-miterlimit:10;} .st34{fill:#FFFFFF;stroke:#6693ED;stroke-width:4;stroke-miterlimit:10;} .st35{fill:none;stroke:#A97CDD;stroke-width:4;stroke-linecap:round;stroke-linejoin:round;stroke-miterlimit:10;} .st36{fill:none;stroke:#B3E3FF;stroke-width:4;stroke-linecap:round;stroke-linejoin:round;stroke-miterlimit:10;} .st37{fill:none;stroke:#4ED1A1;stroke-width:4;stroke-linecap:round;stroke-miterlimit:10;} .st38{fill:none;stroke:#4ED1A1;stroke-width:4;stroke-linecap:round;stroke-linejoin:round;stroke-miterlimit:10;} .st39{fill:#E24B88;stroke:#404040;stroke-width:4;stroke-linecap:round;stroke-linejoin:round;stroke-miterlimit:10;} .st40{fill:none;stroke:#DEEFF8;stroke-width:4;stroke-miterlimit:10;} .st41{fill:none;stroke:#CCCCCC;stroke-width:4;stroke-linecap:round;stroke-linejoin:round;} .st42{fill:none;stroke:#CCCCCC;stroke-width:4;stroke-linecap:round;stroke-linejoin:round;stroke-dasharray:0,14.3051;} .st43{fill:none;stroke:#CCCCCC;stroke-width:4;stroke-linecap:round;stroke-linejoin:round;stroke-dasharray:0,14.1689;} .st44{fill:none;stroke:#CCCCCC;stroke-width:4;stroke-linecap:round;stroke-linejoin:round;stroke-dasharray:0,13.9788;} .st45{fill:none;stroke:#CCCCCC;stroke-width:4;stroke-linecap:round;stroke-linejoin:round;stroke-dasharray:0,14.7877;} .st46{fill:none;stroke:#CCCCCC;stroke-width:4;stroke-linecap:round;stroke-linejoin:round;stroke-dasharray:0,14.9632;} .st47{fill:#B3E3FF;stroke:#404040;stroke-width:4;stroke-linecap:round;stroke-linejoin:round;stroke-miterlimit:10;} .st48{fill:none;stroke:#CCCCCC;stroke-width:4;stroke-linecap:round;stroke-linejoin:round;stroke-dasharray:0,12.543;} .st49{fill:none;stroke:#CCCCCC;stroke-width:4;stroke-linecap:round;stroke-linejoin:round;stroke-dasharray:0,13.6844;} .st50{fill:none;stroke:#CCCCCC;stroke-width:4;stroke-linecap:round;stroke-linejoin:round;stroke-dasharray:0,13.7717;} .st51{fill:none;stroke:#CCCCCC;stroke-width:4;stroke-linecap:round;stroke-linejoin:round;stroke-dasharray:0,13.6492;} .st52{fill:none;stroke:#CCCCCC;stroke-width:4;stroke-linecap:round;stroke-linejoin:round;stroke-dasharray:0,13.907;} .st53{fill:#4CD3D6;stroke:#404040;stroke-width:4;stroke-linecap:round;stroke-linejoin:round;stroke-miterlimit:10;} .st54{fill:none;stroke:#CCCCCC;stroke-width:4;stroke-linecap:round;stroke-linejoin:round;stroke-dasharray:0,14.9858;} .st55{fill:none;stroke:#CCCCCC;stroke-width:4;stroke-linecap:round;stroke-linejoin:round;stroke-dasharray:0,14.0118;} .st56{fill:none;stroke:#CCCCCC;stroke-width:4;stroke-linecap:round;stroke-linejoin:round;stroke-dasharray:0,14.1243;} .st57{fill:none;} .st58{fill:#FFFFFF;stroke:#404040;stroke-width:7;stroke-linecap:round;stroke-linejoin:round;stroke-miterlimit:10;} .st59{fill:#59AFE1;stroke:#404040;stroke-width:7;stroke-linejoin:round;stroke-miterlimit:10;} .st60{fill:#E24B88;stroke:#404040;stroke-width:7;stroke-linecap:round;stroke-linejoin:round;stroke-miterlimit:10;} .st61{fill:none;stroke:#404040;stroke-width:7;stroke-linecap:round;stroke-linejoin:round;stroke-miterlimit:10;} .st62{fill:none;stroke:#CCCCCC;stroke-width:4;stroke-linecap:round;stroke-linejoin:round;stroke-miterlimit:10;} .st63{fill:#FFFFFF;stroke:#CCCCCC;stroke-width:4;stroke-linecap:round;stroke-linejoin:round;stroke-miterlimit:10;} .st64{fill:#F5F5F5;} .st65{fill:#3873AE;} .st66{fill:#75706C;} .st67{fill:none;stroke:#B3E3FF;stroke-width:4;stroke-miterlimit:10;} .st68{fill:#6F6F6F;} .st69{fill:none;stroke:#6F6F6F;stroke-width:2;stroke-miterlimit:10;} .st70{fill:none;stroke:#6F6F6F;stroke-width:3;stroke-miterlimit:10;}</style>
  <path
     class="st14"
     d="M424.4 459.9c0-17 13.8-30.8 30.8-30.8"
     id="path6"
     style="stroke:#235789;stroke-opacity:1" />
  <path
     class="st14"
     d="M254.1 459.9c0-17-13.8-30.8-30.8-30.8m-58.8 123h213.9"
     id="path8"
     style="stroke:#235789;stroke-opacity:1" />
  <circle
     class="st15"
     cx="315.8"
     cy="552.1"
     r="15.8"
     id="circle10"
     style="stroke:#235789;stroke-opacity:1;fill:#bfc3ba;fill-opacity:1" />
  <circle
     class="st15"
     cx="362.7"
     cy="552.1"
     r="15.8"
     id="circle12"
     style="stroke:#235789;stroke-opacity:1;fill:#bfc3ba;fill-opacity:1" />
  <circle
     class="st15"
     cx="242.5"
     cy="552.1"
     r="15.8"
     id="circle14"
     style="stroke:#235789;stroke-opacity:1;fill:#bfc3ba;fill-opacity:1" />
  <path
     class="st14"
     d="M776.2 429.1h-596.3"
     id="path16"
     style="stroke:#235789;stroke-opacity:1" />
  <circle
     class="st7"
     cx="485.2"
     cy="429.1"
     r="15.8"
     id="circle18"
     style="stroke:#235789;stroke-opacity:1;fill:#f1d302;fill-opacity:1" />
  <circle
     class="st7"
     cx="315.8"
     cy="429.1"
     r="15.8"
     id="circle20"
     style="stroke:#235789;stroke-opacity:1;fill:#f1d302;fill-opacity:1" />
  <circle
     class="st7"
     cx="776.2"
     cy="429.1"
     r="15.8"
     id="circle22"
     style="stroke:#235789;stroke-opacity:1;fill:#f1d302;fill-opacity:1" />
  <path
     class="st14"
     d="M254.1 459.9c0 17 13.8 30.8 30.8 30.8h107.9m-307.9-215.7c0 17 13.8 30.8 30.8 30.8h17.3"
     id="path24"
     style="stroke:#235789;stroke-opacity:1" />
  <circle
     class="st15"
     cx="315.8"
     cy="490.6"
     r="15.8"
     id="circle26"
     style="stroke:#235789;stroke-opacity:1;fill:#bfc3ba;fill-opacity:1" />
  <circle
     class="st15"
     cx="362.7"
     cy="490.6"
     r="15.8"
     id="circle28"
     style="stroke:#235789;stroke-opacity:1;fill:#bfc3ba;fill-opacity:1" />
  <path
     class="st14"
     d="M392.8 490.6h.9c17 0 30.8-13.8 30.8-30.8"
     id="path30"
     style="stroke:#235789;stroke-opacity:1" />
  <path
     class="st42"
     d="M57.2 306.1h-35.7"
     id="path32"
     style="stroke:#235789;stroke-opacity:1" />
  <path
     class="st41"
     d="M14.3 306.1m762 0"
     id="path34" />
  <path
     class="st43"
     d="M762.1 306.1h-517.2"
     id="path36"
     style="stroke:#235789;stroke-opacity:1" />
  <path
     class="st41"
     d="M237.8 306.1m307.7 61.5"
     id="path38" />
  <path
     class="st44"
     d="M531.5 367.6h-510.2"
     id="path40"
     style="stroke:#235789;stroke-opacity:1" />
  <path
     class="st41"
     d="M14.3 367.6m762 0"
     id="path42" />
  <path
     class="st45"
     d="M761.5 367.6h-51.8"
     id="path44"
     style="stroke:#235789;stroke-opacity:1" />
  <path
     class="st41"
     d="M702.3 367.6m73.9-123"
     id="path46" />
  <path
     class="st46"
     d="M761.3 244.6h-82.3"
     id="path48"
     style="stroke:#235789;stroke-opacity:1" />
  <path
     class="st14"
     d="M84.9 275.4c0-17-13.8-30.8-30.8-30.8m157.6 30.4c0 17-13.8 30.8-30.8 30.8h-48m78.8-30.4c0-17 13.8-30.8 30.8-30.8m30.7 184.5c-17 0-30.8-13.8-30.8-30.8v-61.8m0 0c0-17-13.8-30.8-30.8-30.8m-126.7-30.3"
     id="path50"
     style="stroke:#235789;stroke-opacity:1" />
  <circle
     class="st15"
     cx="148.7"
     cy="552.1"
     r="15.8"
     id="circle52"
     style="stroke:#235789;stroke-opacity:1;fill:#bfc3ba;fill-opacity:1" />
  <path
     class="st14"
     d="M645 244.6h-605.8"
     id="path54"
     style="stroke:#235789;stroke-opacity:1" />
  <circle
     class="st6"
     cx="23.5"
     cy="244.6"
     r="15.8"
     id="circle56"
     style="stroke:#235789;stroke-opacity:1;fill:#79b473;fill-opacity:1" />
  <circle
     class="st6"
     cx="315.8"
     cy="244.6"
     r="15.8"
     id="circle58"
     style="stroke:#235789;stroke-opacity:1;fill:#79b473;fill-opacity:1" />
  <circle
     class="st6"
     cx="645"
     cy="244.6"
     r="15.8"
     id="circle60"
     style="stroke:#235789;stroke-opacity:1;fill:#79b473;fill-opacity:1" />
  <path
     class="st47"
     d="m 2.9514925,140.1709 42.5000005,0 0,37.5 -42.5000005,0 z"
     id="path62"
     style="fill:#bfc3ba;fill-opacity:1;stroke:#404040;stroke-width:4;stroke-linecap:round;stroke-linejoin:round;stroke-miterlimit:10;stroke-opacity:0"
     inkscape:connector-curvature="0" />
  <path
     class="st10"
     d="m 16.551493,163.4709 -1.2,0 -2.5,-6.3 1.4,0 1.8,4.8 1.8,-4.8 1.3,0 -2.6,6.3 z m 4.7,-7.3 c 0.5,-0.8 1.4,-1.4 2.6,-1.4 1.2,0 2,0.5 2.6,1.4 0.6,0.8 0.8,1.9 0.8,3.1 0,1.2 -0.2,2.2 -0.8,3.1 -0.5,0.8 -1.4,1.4 -2.6,1.4 -1.2,0 -2,-0.5 -2.6,-1.4 -0.6,-0.8 -0.8,-1.9 -0.8,-3.1 0,-1.2 0.2,-2.3 0.8,-3.1 z m 1.2,5.8 c 0.3,0.3 0.7,0.5 1.3,0.5 0.6,0 1,-0.2 1.3,-0.5 0.5,-0.5 0.7,-1.4 0.7,-2.7 0,-1.3 -0.2,-2.2 -0.7,-2.7 -0.3,-0.3 -0.7,-0.5 -1.3,-0.5 -0.6,0 -1,0.2 -1.3,0.5 -0.5,0.5 -0.7,1.4 -0.7,2.7 0,1.3 0.2,2.1 0.7,2.7 z m 7.3,-0.3 c 0.5,0 0.9,0.4 0.9,0.9 0,0.5 -0.4,0.9 -0.9,0.9 -0.5,0 -0.9,-0.4 -0.9,-0.9 0,-0.5 0.4,-0.9 0.9,-0.9 z m 3.9,1.8 0,-5.9 -2,0 0,-0.9 c 1.2,0 2,-0.7 2.2,-1.6 l 1.1,0 0,8.4 -1.3,0 z"
     id="path64"
     style="fill:#ffffff;fill-opacity:1"
     inkscape:connector-curvature="0" />
  <path
     class="st11"
     d="m 24.251493,211.7709 0,-17.6 m 8.2,11.1 -8.2,8.2 -8.1,-8.2"
     id="path66"
     style="fill:none;stroke:#bfc3ba;stroke-width:4;stroke-linecap:round;stroke-linejoin:round;stroke-miterlimit:10;stroke-opacity:1"
     inkscape:connector-curvature="0" />
  <path
     class="st47"
     d="M294.6 139.1h42.5v37.5h-42.5z"
     id="path68"
     style="stroke:#404040;stroke-opacity:0;fill:#bfc3ba;fill-opacity:1" />
  <path
     class="st10"
     d="M306.5 162.4h-1.2l-2.5-6.3h1.4l1.8 4.8 1.8-4.8h1.3l-2.6 6.3zm4.7-7.3c.5-.8 1.4-1.4 2.6-1.4s2 .5 2.6 1.4c.6.8.8 1.9.8 3.1s-.2 2.2-.8 3.1c-.5.8-1.4 1.4-2.6 1.4s-2-.5-2.6-1.4c-.6-.8-.8-1.9-.8-3.1s.2-2.3.8-3.1zm1.2 5.8c.3.3.7.5 1.3.5s1-.2 1.3-.5c.5-.5.7-1.4.7-2.7s-.2-2.2-.7-2.7c-.3-.3-.7-.5-1.3-.5s-1 .2-1.3.5c-.5.5-.7 1.4-.7 2.7s.2 2.1.7 2.7zm7.3-.3c.5 0 .9.4.9.9s-.4.9-.9.9-.9-.4-.9-.9.4-.9.9-.9zm3-3.8v-.3c0-1.4 1.1-2.7 2.9-2.7 1.8 0 2.8 1.2 2.8 2.6 0 1.1-.6 2-1.6 2.6l-1.7 1.1c-.5.3-.9.7-1 1.2h4.3v1.2h-5.9c0-1.4.6-2.4 2-3.4l1.4-.9c.8-.5 1.2-1.1 1.2-1.8 0-.8-.5-1.5-1.6-1.5s-1.6.8-1.6 1.7v.4l-1.2-.2z"
     id="path70"
     style="fill:#ffffff;fill-opacity:1" />
  <path
     class="st11"
     d="M315.8 210.7v-17.6m8.2 11.1l-8.2 8.2-8.1-8.2"
     id="path72"
     style="stroke:#bfc3ba;stroke-opacity:1" />
  <path
     class="st47"
     d="M623.8 139.1h42.5v37.5h-42.5z"
     id="path74"
     style="stroke:#404040;stroke-opacity:0;fill:#bfc3ba;fill-opacity:1" />
  <path
     class="st10"
     d="M636.8 162.4h-1.2l-2.5-6.3h1.4l1.8 4.8 1.8-4.8h1.3l-2.6 6.3zm5.6 0v-5.9h-2v-.9c1.2 0 2-.7 2.2-1.6h1.1v8.4h-1.3zm4.6-1.8c.5 0 .9.4.9.9s-.4.9-.9.9-.9-.4-.9-.9.4-.9.9-.9zm3.6-5.5c.5-.8 1.4-1.4 2.6-1.4s2 .5 2.6 1.4c.6.8.8 1.9.8 3.1s-.2 2.2-.8 3.1c-.5.8-1.4 1.4-2.6 1.4s-2-.5-2.6-1.4c-.6-.8-.8-1.9-.8-3.1s.3-2.3.8-3.1zm1.3 5.8c.3.3.7.5 1.3.5s1-.2 1.3-.5c.5-.5.7-1.4.7-2.7s-.2-2.2-.7-2.7c-.3-.3-.7-.5-1.3-.5s-1 .2-1.3.5c-.5.5-.7 1.4-.7 2.7s.2 2.1.7 2.7z"
     id="path76"
     style="fill:#ffffff;fill-opacity:1" />
  <path
     class="st11"
     d="M645 210.7v-17.6m8.2 11.1l-8.2 8.2-8.1-8.2"
     id="path78"
     style="stroke:#bfc3ba;stroke-opacity:1" />
  <path
     class="st48"
     d="M64.5 429.1h-43.9"
     id="path80"
     style="stroke:#235789;stroke-opacity:1" />
  <path
     class="st41"
     d="M14.3 429.1m246.3 61.5"
     id="path82" />
  <path
     class="st49"
     d="M246.9 490.6h-225.7"
     id="path84"
     style="stroke:#235789;stroke-opacity:1" />
  <path
     class="st41"
     d="M14.3 490.6m762 0"
     id="path86" />
  <path
     class="st50"
     d="M762.5 490.6h-337.4"
     id="path88"
     style="stroke:#235789;stroke-opacity:1" />
  <path
     class="st41"
     d="M418.2 490.6m-294.7 61.5"
     id="path90" />
  <path
     class="st51"
     d="M109.9 552.1h-88.8"
     id="path92"
     style="stroke:#235789;stroke-opacity:1" />
  <path
     class="st41"
     d="M14.3 552.1m762 0"
     id="path94" />
  <path
     class="st52"
     d="M762.3 552.1h-368.5"
     id="path96"
     style="stroke:#235789;stroke-opacity:1" />
  <path
     class="st10"
     d="m 322.43117,43.632853 -1.6,0 0,4.3 -1.5,0 0,-10.5 4,0 c 2,0 3.3,1.4 3.3,3.2 0,1.5 -1,2.7 -2.6,3 l 2.5,4.5 -1.7,0 -2.4,-4.5 z m 0.7,-1.3 c 1.2,0 2,-0.7 2,-1.8 0,-1.1 -0.8,-1.8 -2,-1.8 l -2.2,0 0,3.6 2.2,0 z m 12.1,3.6 c -0.4,1.3 -1.6,2.3 -3.2,2.3 -1.9,0 -3.6,-1.4 -3.6,-3.9 0,-2.3 1.6,-3.8 3.5,-3.8 2.2,0 3.5,1.5 3.5,3.8 l 0,0.5 -5.4,0 c 0,1.3 1,2.2 2.2,2.2 1.2,0 1.8,-0.6 2,-1.5 l 1,0.4 z m -1.4,-2.3 c 0,-1 -0.7,-1.8 -2,-1.8 -1.2,0 -1.9,0.9 -2,1.8 l 4,0 z m 4,4.4 0,-10.9 1.4,0 0,10.9 -1.4,0 z m 10.9,-2.1 c -0.4,1.3 -1.6,2.3 -3.2,2.3 -1.9,0 -3.6,-1.4 -3.6,-3.9 0,-2.3 1.6,-3.8 3.5,-3.8 2.2,0 3.5,1.5 3.5,3.8 l 0,0.5 -5.4,0 c 0,1.3 1,2.2 2.2,2.2 1.2,0 1.8,-0.6 2,-1.5 l 1,0.4 z m -1.4,-2.3 c 0,-1 -0.7,-1.8 -2,-1.8 -1.2,0 -1.9,0.9 -2,1.8 l 4,0 z m 5.7,0.3 2,-0.3 c 0.4,-0.1 0.6,-0.3 0.6,-0.5 0,-0.7 -0.5,-1.3 -1.6,-1.3 -1,0 -1.5,0.6 -1.6,1.5 l -1.4,-0.3 c 0.2,-1.4 1.4,-2.3 3,-2.3 2.2,0 3,1.2 3,2.6 l 0,3.5 c 0,0.6 0.1,1 0.1,1.2 l -1.5,0 c 0,-0.2 -0.1,-0.5 -0.1,-1 -0.3,0.5 -1,1.2 -2.3,1.2 -1.5,0 -2.4,-1 -2.4,-2.2 0,-1.2 1,-2 2.2,-2.1 z m 2.5,1 0,-0.3 -2.2,0.3 c -0.6,0.1 -1,0.4 -1,1.1 0,0.5 0.5,1 1.2,1 1.1,0 2,-0.5 2,-2.1 z m 5,0.8 c 0.1,0.8 0.7,1.3 1.7,1.3 0.8,0 1.2,-0.5 1.2,-1 0,-0.4 -0.3,-0.8 -0.9,-0.9 l -1.2,-0.3 c -1.1,-0.2 -1.8,-1 -1.8,-2 0,-1.2 1.2,-2.3 2.6,-2.3 2,0 2.6,1.3 2.7,1.9 l -1.2,0.5 c -0.1,-0.4 -0.4,-1.2 -1.5,-1.2 -0.7,0 -1.2,0.5 -1.2,1 0,0.4 0.3,0.8 0.8,0.9 l 1.2,0.3 c 1.3,0.3 2,1.1 2,2.1 0,1 -0.9,2.2 -2.6,2.2 -2,0 -2.8,-1.3 -2.9,-2.1 l 1.1,-0.4 z m 13.1,0.2 c -0.4,1.3 -1.6,2.3 -3.2,2.3 -1.9,0 -3.6,-1.4 -3.6,-3.9 0,-2.3 1.6,-3.8 3.5,-3.8 2.2,0 3.5,1.5 3.5,3.8 l 0,0.5 -5.4,0 c 0,1.3 1,2.2 2.2,2.2 1.2,0 1.8,-0.6 2,-1.5 l 1,0.4 z m -1.4,-2.3 c 0,-1 -0.7,-1.8 -2,-1.8 -1.2,0 -1.9,0.9 -2,1.8 l 4,0 z"
     id="path100"
     inkscape:connector-curvature="0"
     style="fill:#235789;fill-opacity:1" />
  <path
     class="st10"
     d="m 450.5014,46.732853 0,-10.6 3.7,0 c 2.7,0 5.1,1.8 5.1,5.3 0,3.5 -2.4,5.3 -5.1,5.3 l -3.7,0 z m 3.6,-1.3 c 2,0 3.6,-1.3 3.6,-4 0,-2.7 -1.6,-4 -3.6,-4 l -2.2,0 0,8 2.2,0 z m 14,-0.8 c -0.4,1.3 -1.6,2.3 -3.2,2.3 -1.9,0 -3.6,-1.4 -3.6,-3.9 0,-2.3 1.6,-3.8 3.4,-3.8 2.2,0 3.5,1.5 3.5,3.8 l 0,0.5 -5.4,0 c 0,1.3 1,2.2 2.2,2.2 1.2,0 1.8,-0.6 2,-1.5 l 1.1,0.4 z m -1.4,-2.3 c 0,-1 -0.7,-1.8 -2,-1.8 -1.2,0 -1.9,0.9 -2,1.8 l 4,0 z m 7.5,4.4 -1.4,0 -3,-7.2 1.6,0 2.1,5.6 2.1,-5.6 1.5,0 -2.9,7.2 z m 10.7,-2.1 c -0.4,1.3 -1.6,2.3 -3.2,2.3 -1.9,0 -3.6,-1.4 -3.6,-3.9 0,-2.3 1.6,-3.8 3.5,-3.8 2.2,0 3.5,1.5 3.5,3.8 l 0,0.5 -5.4,0 c 0,1.3 1,2.2 2.2,2.2 1.2,0 1.8,-0.6 2,-1.5 l 1,0.4 z m -1.4,-2.3 c 0,-1 -0.7,-1.8 -2,-1.8 -1.2,0 -1.9,0.9 -2,1.8 l 4,0 z m 4,4.4 0,-10.9 1.4,0 0,10.9 -1.4,0 z m 11.4,-3.6 c 0,2.2 -1.5,3.8 -3.7,3.8 -2.2,0 -3.7,-1.6 -3.7,-3.8 0,-2.2 1.5,-3.8 3.7,-3.8 2.1,-0.1 3.7,1.6 3.7,3.8 z m -1.5,0 c 0,-1.7 -1,-2.6 -2.2,-2.6 -1.2,0 -2.2,0.9 -2.2,2.6 0,1.7 1,2.6 2.2,2.6 1.2,0 2.2,-1 2.2,-2.6 z m 4,6.4 0,-10 1.4,0 0,1.1 c 0.4,-0.7 1.2,-1.3 2.4,-1.3 2.2,0 3.3,1.7 3.3,3.8 0,2.1 -1.2,3.8 -3.4,3.8 -1.1,0 -2,-0.5 -2.3,-1.2 l 0,3.8 -1.4,0 z m 3.5,-8.9 c -1.3,0 -2.1,1.1 -2.1,2.5 0,1.5 0.9,2.6 2.1,2.6 1.3,0 2.1,-1.1 2.1,-2.6 0.1,-1.5 -0.7,-2.5 -2.1,-2.5 z"
     id="path104"
     inkscape:connector-curvature="0"
     style="fill:#235789;fill-opacity:1" />
  <path
     class="st10"
     d="m 199.16093,48.082853 0,-4.7 -5.4,0 0,4.7 -1.5,0 0,-10.6 1.5,0 0,4.5 5.4,0 0,-4.5 1.5,0 0,10.6 -1.5,0 z m 11.5,-3.6 c 0,2.2 -1.5,3.8 -3.7,3.8 -2.2,0 -3.7,-1.6 -3.7,-3.8 0,-2.2 1.5,-3.8 3.7,-3.8 2.2,-0.1 3.7,1.6 3.7,3.8 z m -1.4,0 c 0,-1.7 -1,-2.6 -2.2,-2.6 -1.2,0 -2.2,0.9 -2.2,2.6 0,1.7 1,2.6 2.2,2.6 1.2,0 2.2,-1 2.2,-2.6 z m 5.8,-3.6 1.6,0 0,1.3 -1.6,0 0,3.7 c 0,0.7 0.3,1 1,1 0.2,0 0.4,0 0.6,-0.1 l 0,1.2 c -0.1,0 -0.5,0.1 -1,0.1 -1.2,0 -2,-0.8 -2,-2.1 l 0,-4 -1.4,0 0,-1.1 0.4,0 c 0.8,0 1.1,-0.5 1.1,-1.1 l 0,-1.2 1.3,0 0,2.3 z m 7.8,-3.6 0,1.3 c -0.1,0 -0.3,-0.1 -0.6,-0.1 -0.5,0 -1.1,0.2 -1.1,1.2 l 0,1.2 4.8,0 0,7.2 -1.4,0 0,-5.9 -3.4,0 0,5.9 -1.5,0 0,-5.9 -1.3,0 0,-1.3 1.3,0 0,-1.2 c 0,-1.6 1.1,-2.5 2.4,-2.5 0.4,0 0.7,0.1 0.8,0.1 z m 2.3,-0.2 c 0.6,0 1,0.4 1,1 0,0.6 -0.5,1 -1,1 -0.6,0 -1,-0.5 -1,-1 0,-0.6 0.5,-1 1,-1 z m 5.5,7.3 -2.6,-3.5 1.7,0 1.8,2.5 1.7,-2.5 1.7,0 -2.6,3.5 c 0.4,0.6 2.2,3.1 2.7,3.7 l -1.7,0 -1.9,-2.7 -1.8,2.7 -1.7,0 2.7,-3.7 z"
     id="path108"
     inkscape:connector-curvature="0"
     style="fill:#235789;fill-opacity:1" />
  <path
     class="st10"
     d="m 65.840705,47.882853 0,-8.3 -3.6,8.3 -1.3,0 -3.6,-8.3 0,8.3 -1.5,0 0,-10.6 2,0 3.8,8.7 3.8,-8.7 2,0 0,10.6 -1.6,0 z m 6.4,-4.1 1.900002,-0.3 c 0.4,-0.1 0.6,-0.3 0.6,-0.5 0,-0.7 -0.5,-1.3 -1.600002,-1.3 -1,0 -1.5,0.6 -1.6,1.5 l -1.3,-0.3 c 0.1,-1.4 1.4,-2.3 3,-2.3 2.200002,0 3.000002,1.2 3.000002,2.6 l 0,3.5 c 0,0.6 0.1,1 0.1,1.2 l -1.4,0 c 0,-0.2 -0.1,-0.5 -0.1,-1 -0.3,0.5 -1.000002,1.2 -2.300002,1.2 -1.5,0 -2.4,-1 -2.4,-2.2 -0.1,-1.2 0.9,-2 2.1,-2.1 z m 2.500002,1 0,-0.3 -2.200002,0.3 c -0.6,0.1 -1,0.4 -1,1.1 0,0.5 0.4,1 1.2,1 1.1,0 2.000002,-0.5 2.000002,-2.1 z m 5,0.8 c 0.1,0.8 0.7,1.3 1.7,1.3 0.8,0 1.2,-0.5 1.2,-1 0,-0.4 -0.3,-0.8 -0.9,-0.9 l -1.2,-0.3 c -1.1,-0.2 -1.8,-1 -1.8,-2 0,-1.2 1.2,-2.3 2.6,-2.3 2,0 2.6,1.3 2.7,1.9 l -1.2,0.5 c -0.1,-0.4 -0.4,-1.2 -1.5,-1.2 -0.7,0 -1.2,0.5 -1.2,1 0,0.4 0.3,0.8 0.8,0.9 l 1.2,0.3 c 1.3,0.3 2,1.1 2,2.1 0,1 -0.9,2.2 -2.6,2.2 -2,0 -2.8,-1.3 -2.9,-2.1 l 1.1,-0.4 z m 8.8,-4.9 1.6,0 0,1.3 -1.6,0 0,3.7 c 0,0.7 0.3,1 1,1 0.2,0 0.4,0 0.6,-0.1 l 0,1.2 c -0.1,0 -0.5,0.1 -1,0.1 -1.2,0 -2,-0.8 -2,-2.1 l 0,-4 -1.4,0 0,-1.1 0.4,0 c 0.8,0 1.1,-0.5 1.1,-1.1 l 0,-1.2 1.3,0 0,2.3 z m 10.39999,5.1 c -0.4,1.3 -1.6,2.3 -3.2,2.3 -1.9,0 -3.59999,-1.4 -3.59999,-3.9 0,-2.3 1.59999,-3.8 3.49999,-3.8 2.2,0 3.5,1.5 3.5,3.8 l 0,0.4 -5.4,0 c 0,1.3 1,2.2 2.2,2.2 1.2,0 1.8,-0.6 2,-1.5 l 1,0.5 z m -1.4,-2.3 c 0,-1 -0.7,-1.8 -2,-1.8 -1.2,0 -1.9,0.9 -2,1.8 l 4,0 z m 8.000003,-1.4 -0.6,0 c -1.2,0 -2,0.6 -2,2.2 l 0,3.6 -1.4,0 0,-7.2 1.4,0 0,1.3 c 0.5,-1.1 1.4,-1.4 2.2,-1.4 l 0.5,0 0,1.5 z"
     id="path112"
     inkscape:connector-curvature="0"
     style="fill:#235789;fill-opacity:1" />
  <path
     class="st10"
     d="m 585.52158,47.832853 0,-10.6 6.5,0 0,1.4 -5,0 0,3.4 4.5,0 0,1.4 -4.5,0 0,4.5 -1.5,0 z m 14.7,-2.1 c -0.4,1.3 -1.6,2.3 -3.2,2.3 -1.9,0 -3.6,-1.4 -3.6,-3.9 0,-2.3 1.6,-3.8 3.5,-3.8 2.2,0 3.5,1.5 3.5,3.8 l 0,0.5 -5.4,0 c 0,1.3 1,2.2 2.2,2.2 1.2,0 1.8,-0.6 2,-1.5 l 1,0.4 z m -1.5,-2.3 c 0,-1 -0.7,-1.8 -2,-1.8 -1.2,0 -1.9,0.9 -2,1.8 l 4,0 z m 5.8,0.3 2,-0.3 c 0.4,-0.1 0.6,-0.3 0.6,-0.5 0,-0.7 -0.5,-1.3 -1.6,-1.3 -1,0 -1.5,0.6 -1.6,1.5 l -1.3,-0.3 c 0.2,-1.4 1.4,-2.3 3,-2.3 2.2,0 3,1.2 3,2.6 l 0,3.6 c 0,0.6 0.1,1 0.1,1.2 l -1.4,0 c 0,-0.2 -0.1,-0.5 -0.1,-1 -0.3,0.5 -1,1.2 -2.3,1.2 -1.5,0 -2.4,-1 -2.4,-2.2 -0.2,-1.3 0.7,-2.1 2,-2.2 z m 2.5,1 0,-0.3 -2.2,0.3 c -0.6,0.1 -1,0.4 -1,1.1 0,0.5 0.5,1 1.2,1 1.1,0 2,-0.5 2,-2.1 z m 6.2,-4.1 1.6,0 0,1.3 -1.6,0 0,3.8 c 0,0.7 0.3,1 1,1 0.2,0 0.4,0 0.6,-0.1 l 0,1.2 c -0.1,0 -0.5,0.1 -1,0.1 -1.2,0 -2,-0.8 -2,-2.1 l 0,-4 -1.4,0 0,-1.3 0.4,0 c 0.8,0 1.1,-0.5 1.1,-1.1 l 0,-1.2 1.3,0 0,2.4 z m 6.8,7.4 c -1.7,0 -2.7,-1.3 -2.7,-2.9 l 0,-4.5 1.4,0 0,4.3 c 0,1 0.5,1.9 1.6,1.9 1.1,0 1.7,-0.8 1.7,-1.8 l 0,-4.3 1.4,0 0,5.9 c 0,0.6 0,1.1 0.1,1.3 l -1.3,0 c 0,-0.2 -0.1,-0.6 -0.1,-0.9 -0.3,0.7 -1.2,1 -2.1,1 z m 10.7,-6 -0.6,0 c -1.2,0 -2,0.6 -2,2.2 l 0,3.6 -1.4,0 0,-7.2 1.4,0 0,1.3 c 0.5,-1.1 1.4,-1.4 2.2,-1.4 l 0.5,0 0,1.5 z m 8.4,3.7 c -0.4,1.3 -1.6,2.3 -3.2,2.3 -1.9,0 -3.6,-1.4 -3.6,-3.9 0,-2.3 1.6,-3.8 3.5,-3.8 2.2,0 3.5,1.5 3.5,3.8 l 0,0.5 -5.4,0 c 0,1.3 1,2.2 2.2,2.2 1.2,0 1.8,-0.6 2,-1.5 l 1,0.4 z m -1.4,-2.3 c 0,-1 -0.7,-1.8 -2,-1.8 -1.2,0 -1.9,0.9 -2,1.8 l 4,0 z"
     id="path116"
     inkscape:connector-curvature="0"
     style="fill:#235789;fill-opacity:1" />
  <path
     class="st14"
     d="M84.9 275v123.4c0 17 13.8 30.8 30.8 30.8h95.7"
     id="path122"
     style="stroke:#235789;stroke-opacity:1" />
  <circle
     class="st7"
     cx="195.6"
     cy="429.1"
     r="15.7"
     id="circle124"
     style="stroke:#235789;stroke-opacity:1;fill:#f1d302;fill-opacity:1" />
  <circle
     class="st7"
     cx="148.7"
     cy="429.1"
     r="15.8"
     id="circle126"
     style="stroke:#235789;stroke-opacity:1;fill:#f1d302;fill-opacity:1" />
  <circle
     class="st32"
     cx="148.7"
     cy="306.1"
     r="15.8"
     id="circle128"
     style="stroke:#235789;stroke-opacity:1;fill:#ec4e20;fill-opacity:1" />
  <path
     class="st14"
     d="M536.5 398.4c0 17-13.8 30.8-30.8 30.8m201-30.8c0 17 13.8 30.8 30.8 30.8h23m-192.4-61.6h-.9c-17 0-30.8 13.8-30.8 30.8m170.3 0c0-17-13.8-30.8-30.8-30.8h-107.8"
     id="path130"
     style="stroke:#235789;stroke-opacity:1" />
  <circle
     class="st27"
     cx="645"
     cy="367.6"
     r="15.8"
     id="circle132"
     style="stroke:#235789;stroke-opacity:1;fill:#06aed5;fill-opacity:1" />
  <circle
     class="st27"
     cx="598.2"
     cy="367.6"
     r="15.8"
     id="circle134"
     style="stroke:#235789;stroke-opacity:1;fill:#06aed5;fill-opacity:1" />
  <path
     class="st14"
     d="M148.7 444.9v91.5m15.8-230.7h47.2m433.3 46.2v-91.5"
     id="path136"
     style="stroke:#235789;stroke-opacity:1" />
  <circle
     class="st7"
     cx="423.04126"
     cy="42.682854"
     r="15.8"
     id="circle20-6"
     style="fill:#f1d302;fill-opacity:1;stroke:#235789;stroke-width:4;stroke-miterlimit:10;stroke-opacity:1" />
  <circle
     class="st15"
     cx="555.96149"
     cy="42.682854"
     r="15.8"
     id="circle28-6"
     style="fill:#bfc3ba;fill-opacity:1;stroke:#235789;stroke-width:4;stroke-miterlimit:10;stroke-opacity:1" />
  <circle
     class="st6"
     cx="24.280592"
     cy="42.682854"
     r="15.8"
     id="circle56-8"
     style="fill:#79b473;fill-opacity:1;stroke:#235789;stroke-width:4;stroke-miterlimit:10;stroke-opacity:1" />
  <circle
     class="st32"
     cx="157.20082"
     cy="42.682854"
     r="15.8"
     id="circle128-6"
     style="fill:#ec4e20;fill-opacity:1;stroke:#235789;stroke-width:4;stroke-linecap:round;stroke-linejoin:round;stroke-miterlimit:10;stroke-opacity:1" />
  <circle
     class="st27"
     cx="290.12103"
     cy="42.682854"
     r="15.8"
     id="circle134-1"
     style="fill:#06aed5;fill-opacity:1;stroke:#235789;stroke-width:4;stroke-linejoin:round;stroke-miterlimit:10;stroke-opacity:1" />
</svg>
